PathFileType	4	(X/Y/Z)	8_coords_data.trc
DataRate	CameraRate	NumFrames	NumMarkers	Units	OrigDataRate	OrigDataStartFrame	OrigNumFrames
30.0	30.0	6	21	m	30.0	1	53
Frame#	Time	THUMB_TIP	THUMB_IP	THUMB_MCP	THUMB_CMC	INDEX_TIP	INDEX_DIP	INDEX_PIP	INDEX_MCP	MIDDLE_TIP	MIDDLE_DIP	MIDDLE_PIP	MIDDLE_MCP	RING_TIP	RING_DIP	RING_PIP	RING_MCP	PINKY_TIP	PINKY_DIP	PINKY_PIP	PINKY_MCP	WRIST
X1	Y1	Z1	X2	Y2	Z2	X3	Y3	Z3	X4	Y4	Z4	X5	Y5	Z5	X6	Y6	Z6	X7	Y7	Z7	X8	Y8	Z8	X9	Y9	Z9	X10	Y10	Z10	X11	Y11	Z11	X12	Y12	Z12	X13	Y13	Z13	X14	Y14	Z14	X15	Y15	Z15	X16	Y16	Z16	X17	Y17	Z17	X18	Y18	Z18	X19	Y19	Z19	X20	Y20	Z20	X21	Y21	Z21
0	0.0	-0.03824829864501953	-0.10281800079345703	0.9935280151367187	-0.03651679992675781	-0.0757345962524414	0.9905579833984375	-0.041291999816894534	-0.048514598846435546	0.9981309814453125	-0.04422409820556641	-0.015738300323486328	1.00627001953125	-0.042490798950195315	-0.03022999954223633	0.9796409912109375	-0.02628450012207031	-0.030981000900268556	0.9727949829101562	-0.022086999893188478	-0.036480701446533204	0.94972900390625	-0.060415000915527345	-0.03895840072631836	0.9543690185546875	-0.03803670120239258	-0.017738300323486327	0.9856209716796875	-0.02412070083618164	-0.01526889991760254	0.972052978515625	-0.02067650032043457	-0.01852120018005371	0.947301025390625	-0.060996498107910156	-0.019257400512695314	0.9493699951171874	-0.04300709915161133	-0.0016766300201416012	0.9828079833984374	-0.02382979965209961	0.0009509069919586181	0.9696719970703125	-0.02034280014038086	0.001729949951171875	0.9475239868164063	-0.0574541015625	0.000931578993797302	0.9501640014648437	-0.040852798461914065	0.01134529972076416	0.9867940063476562	-0.025579200744628907	0.013232199668884278	0.9747639770507812	-0.02666629981994629	0.017158300399780273	0.9563170166015625	-0.05447650146484375	0.018933399200439453	0.954802001953125	-0.06651210021972656	0.008116029739379882	1.0223200073242187
1	0.03333333333333333	-0.039658500671386716	-0.10310600280761718	0.9924010009765625	-0.03768050003051758	-0.07612870025634766	0.9909609985351563	-0.04143539810180664	-0.04960329818725586	0.9979639892578125	-0.04458829879760742	-0.017149799346923827	1.0060399780273437	-0.04243320083618164	-0.03170630073547363	0.980791015625	-0.0260403995513916	-0.031759899139404295	0.9710910034179687	-0.02347909927368164	-0.03766510009765625	0.950208984375	-0.06079010009765625	-0.03940760040283203	0.9562960205078125	-0.03562919998168945	-0.017589099884033205	0.9823140258789063	-0.024708400726318358	-0.01571179962158203	0.9711220092773437	-0.021489500045776367	-0.018705299377441406	0.945885986328125	-0.06194499969482422	-0.018897899627685545	0.9499550170898438	-0.040055801391601566	-0.0022082200050354	0.9843920288085938	-0.0254197998046875	0.0007035589814186091	0.9718809814453125	-0.021481500625610352	0.001075420022010803	0.9484320068359375	-0.05867559814453125	0.000834353029727935	0.950927978515625	-0.040453998565673825	0.011213500022888184	0.9841060180664063	-0.02661520004272461	0.014221799850463868	0.9731799926757813	-0.026822900772094725	0.016898399353027345	0.9566389770507813	-0.055157398223876955	0.01916900062561035	0.9551290283203125	-0.06617330169677735	0.008725600242614746	1.022510009765625
2	0.06666666666666667	-0.040167701721191405	-0.10301599884033204	0.9922219848632813	-0.03817169952392578	-0.07608370208740234	0.9907559814453125	-0.0418838996887207	-0.04961880111694336	0.9975869750976563	-0.044961200714111325	-0.017125200271606446	1.0058599853515624	-0.0426531982421875	-0.03159550094604492	0.9805689697265625	-0.026381900787353516	-0.031687299728393556	0.9708800048828125	-0.023791799545288084	-0.03754909896850586	0.950083984375	-0.06102339935302734	-0.03924369812011719	0.9559409790039063	-0.03599789810180664	-0.017469200134277343	0.9822550048828125	-0.025062000274658203	-0.015581700325012207	0.9710659790039062	-0.021777099609375	-0.0185664005279541	0.945739990234375	-0.06229819869995117	-0.01877109909057617	0.949823974609375	-0.04023540115356445	-0.002038690090179443	0.9845050048828125	-0.02577039909362793	0.0008375710248947141	0.9717739868164063	-0.021775100708007814	0.001208289980888366	0.94831298828125	-0.05897129821777344	0.0009549419879913331	0.9508670043945312	-0.040728199005126954	0.01137030029296875	0.9840549926757812	-0.026794599533081054	0.014387200355529785	0.97302099609375	-0.02708180046081543	0.017042699813842772	0.9565280151367187	-0.05549140167236328	0.01927869987487793	0.9550650024414062	-0.06658309936523438	0.008781450271606445	1.0224199829101563
3	0.1	-0.04048749923706055	-0.10290799713134766	0.9921309814453125	-0.03849020004272461	-0.07599569702148437	0.9906589965820313	-0.042143901824951174	-0.049473899841308594	0.9975189819335938	-0.04516360092163086	-0.01700320053100586	1.005719970703125	-0.042923999786376954	-0.03152580070495605	0.980531005859375	-0.026727800369262696	-0.031626100540161135	0.9705369873046875	-0.024290800094604492	-0.03753889846801758	0.949677001953125	-0.061445499420166014	-0.03916120147705078	0.9560230102539062	-0.03633219909667969	-0.017460699081420897	0.9819530029296875	-0.025434900283813476	-0.015571999549865722	0.9704580078125	-0.022262800216674806	-0.018548900604248048	0.9452760009765625	-0.06271160125732422	-0.018666599273681642	0.9497160034179688	-0.04052130126953125	-0.002044379949569702	0.9840900268554688	-0.02604879951477051	0.0008712289929389951	0.9712520141601563	-0.02224920082092285	0.001279760003089904	0.9478150024414063	-0.05943330001831055	0.001055909991264343	0.9507340087890624	-0.041068801879882814	0.011420200347900391	0.9837760009765625	-0.027154800415039062	0.014421799659729003	0.9727750244140625	-0.027523799896240233	0.017126800537109375	0.9561370239257813	-0.05589979934692383	0.019389499664306642	0.954927001953125	-0.06675199890136718	0.008892149925231933	1.0223800048828124
4	0.13333333333333333	-0.04110049819946289	-0.10301200103759765	0.9926389770507813	-0.03904299926757813	-0.0760802993774414	0.9910089721679688	-0.04260409927368164	-0.04949449920654297	0.9976680297851562	-0.04552679824829101	-0.016952299118041993	1.0056799926757813	-0.04337960052490234	-0.03160050010681152	0.9802069702148437	-0.027060100555419922	-0.03167359924316406	0.9705250244140625	-0.024660999298095704	-0.03765459823608398	0.9496929931640625	-0.06181679916381836	-0.03920909881591797	0.9560469970703125	-0.03670809936523438	-0.01748550033569336	0.9815650024414062	-0.02572319984436035	-0.015623800277709961	0.970385986328125	-0.022628999710083007	-0.018706300735473632	0.9451929931640625	-0.0630625991821289	-0.018752500534057616	0.9496649780273437	-0.040918300628662106	-0.0020464599132537843	0.98377099609375	-0.026309900283813477	0.0008009899854660031	0.9709819946289062	-0.022592599868774415	0.0011386400461196899	0.947635986328125	-0.05977730178833008	0.0009817339777946472	0.9506329956054688	-0.041352401733398436	0.011436200141906739	0.9835419921875	-0.02751180076599121	0.014373900413513184	0.97247998046875	-0.027871400833129882	0.017022499084472655	0.9559219970703124	-0.05615679931640625	0.019342399597167968	0.9547230224609375	-0.06707330322265626	0.009012700080871582	1.0223200073242187
5	0.16666666666666666	-0.04134669876098633	-0.10299099731445313	0.992719970703125	-0.039257400512695315	-0.07606210327148437	0.9910139770507812	-0.04276139831542969	-0.049479499816894534	0.9976279907226563	-0.045676700592041014	-0.01693280029296875	1.0055900268554687	-0.04353369903564453	-0.031494800567626956	0.980135986328125	-0.027235599517822267	-0.03162739944458008	0.970364013671875	-0.024763200759887697	-0.03757699966430664	0.9495830078125	-0.06192419815063477	-0.039140300750732424	0.9558720092773437	-0.036812198638916015	-0.017408199310302734	0.9818289794921875	-0.025772499084472655	-0.015550000190734863	0.970427001953125	-0.022721200942993163	-0.018627599716186525	0.94510400390625	-0.06317309951782227	-0.018649700164794922	0.9496129760742188	-0.0411161003112793	-0.002007060050964355	0.983656982421875	-0.026468399047851563	0.0008494459986686701	0.9709660034179688	-0.02267169952392578	0.001212990045547485	0.9475750122070312	-0.05984479904174805	0.00105987000465393	0.9505609741210937	-0.041508201599121095	0.0115177001953125	0.983469970703125	-0.02765060043334961	0.014465800285339355	0.9724760131835938	-0.027999300003051758	0.01710540008544922	0.9558839721679687	-0.0562952995300293	0.019410699844360352	0.9546530151367187	-0.06723380279541015	0.009011449813842774	1.0221599731445312
